<svg width="56" height="56" viewBox="0 0 56 56" fill="none" xmlns="http://www.w3.org/2000/svg">
<g id="compare">
<g id="Group 24">
<g id="Group">
<g id="Group_2">
<path id="Vector" d="M38.6233 32.726L35.9037 30.0287C35.5605 29.6884 35.0065 29.6906 34.6663 30.0337C34.326 30.3769 34.3282 30.9309 34.6713 31.2712L37.1768 33.7562H36.109C33.5822 33.7562 31.2506 32.6629 29.7122 30.7566C29.4087 30.3805 28.8578 30.3217 28.4818 30.6252C28.1057 30.9287 28.0469 31.4796 28.3504 31.8557C30.2227 34.1756 33.0506 35.5062 36.109 35.5062H37.0886L34.6713 37.9037C34.3282 38.2439 34.3259 38.7979 34.6663 39.1411C34.8374 39.3135 35.0624 39.3999 35.2875 39.3999C35.5102 39.3999 35.7331 39.3154 35.9037 39.1462L38.6233 36.4488C39.1242 35.9521 39.4 35.2909 39.4 34.5874C39.4 33.8839 39.1242 33.2228 38.6233 32.726Z" fill="#6B6B6B"/>
</g>
</g>
<g id="Group_3">
<g id="Group_4">
<path id="Vector_2" d="M38.6233 19.951L35.9037 17.2537C35.5605 16.9134 35.0065 16.9156 34.6662 17.2588C34.326 17.6019 34.3282 18.1559 34.6713 18.4962L37.0886 20.8937H36.109C32.5361 20.8937 29.2284 22.7772 27.4766 25.809L27.1058 26.4509L26.5074 25.4153C24.7557 22.3834 21.4479 20.4999 17.875 20.4999C17.3917 20.4999 17 20.8917 17 21.3749C17 21.8582 17.3917 22.2499 17.875 22.2499C20.8249 22.2499 23.552 23.7983 24.9922 26.2908L26.0952 28.1999L24.9921 30.1091C23.552 32.6016 20.8249 34.1499 17.875 34.1499C17.3917 34.1499 17 34.5417 17 35.0249C17 35.5082 17.3917 35.8999 17.875 35.8999C21.4479 35.8999 24.7556 34.0165 26.5074 30.9846L27.8558 28.6509C27.8607 28.6427 27.8655 28.6344 27.8701 28.6261L28.9919 26.6845C30.432 24.192 33.1592 22.6437 36.109 22.6437H37.1768L34.6713 25.1287C34.3282 25.469 34.3259 26.023 34.6662 26.3661C34.8374 26.5386 35.0624 26.6249 35.2875 26.6249C35.5102 26.6249 35.7331 26.5404 35.9037 26.3712L38.6233 23.6739C39.1242 23.1771 39.4 22.516 39.4 21.8124C39.4 21.1089 39.1242 20.4478 38.6233 19.951Z" fill="#6B6B6B"/>
</g>
</g>
</g>
</g>
</svg>
