<svg width="50" height="51" viewBox="0 0 50 51" fill="none" xmlns="http://www.w3.org/2000/svg">
<g id="fast" clip-path="url(#clip0_602_3676)">
<g id="Group 16">
<path id="Vector" d="M36.4587 38.9467H40.6253C41.2003 38.9467 41.667 38.4757 41.667 37.8955C41.667 37.3152 41.2003 36.8442 40.6253 36.8442H36.4587C35.8837 36.8442 35.417 37.3152 35.417 37.8955C35.417 38.4757 35.8837 38.9467 36.4587 38.9467Z" fill="#86BC42"/>
<path id="Vector_2" d="M2.604 38.9464H5.20817C5.78317 38.9464 6.24983 38.4755 6.24983 37.8952C6.24983 37.3149 5.78317 36.844 5.20817 36.844H3.46858L2.06441 29.292C2.08316 25.4277 5.354 22.1269 9.37483 22.1269H16.2144L19.529 36.844H13.5415C12.9665 36.844 12.4998 37.3149 12.4998 37.8952C12.4998 38.4755 12.9665 38.9464 13.5415 38.9464H20.8332C21.1498 38.9464 21.4498 38.8014 21.6478 38.5512C21.8457 38.3031 21.9207 37.9751 21.8498 37.6639L18.0623 20.8444C17.954 20.3629 17.5332 20.0244 17.0457 20.0244H9.37483C4.20608 20.0244 -0.000167847 24.2693 -0.000167847 29.4854L1.58108 38.0886C1.67275 38.5869 2.10192 38.9464 2.604 38.9464Z" fill="#86BC42"/>
<path id="Vector_3" d="M9.37467 43.1514C12.2455 43.1514 14.583 40.7945 14.583 37.8953C14.583 34.996 12.2455 32.6392 9.37467 32.6392C6.50384 32.6392 4.16634 34.996 4.16634 37.8953C4.16634 40.7945 6.50384 43.1514 9.37467 43.1514ZM9.37467 34.7416C11.0976 34.7416 12.4997 36.1566 12.4997 37.8953C12.4997 39.634 11.0976 41.0489 9.37467 41.0489C7.65175 41.0489 6.24967 39.634 6.24967 37.8953C6.24967 36.1566 7.65175 34.7416 9.37467 34.7416Z" fill="#86BC42"/>
<path id="Vector_4" d="M32.2917 43.1514C35.1625 43.1514 37.5 40.7945 37.5 37.8953C37.5 34.996 35.1625 32.6392 32.2917 32.6392C29.4208 32.6392 27.0833 34.996 27.0833 37.8953C27.0833 40.7945 29.4208 43.1514 32.2917 43.1514ZM32.2917 34.7416C34.0146 34.7416 35.4167 36.1566 35.4167 37.8953C35.4167 39.634 34.0146 41.0489 32.2917 41.0489C30.5687 41.0489 29.1667 39.634 29.1667 37.8953C29.1667 36.1566 30.5687 34.7416 32.2917 34.7416Z" fill="#86BC42"/>
<path id="Vector_5" d="M36.458 20.0243H44.7913C45.3663 20.0243 45.833 19.5534 45.833 18.9731C45.833 18.3928 45.3663 17.9219 44.7913 17.9219H36.458C35.883 17.9219 35.4163 18.3928 35.4163 18.9731C35.4163 19.5534 35.883 20.0243 36.458 20.0243Z" fill="#86BC42"/>
<path id="Vector_6" d="M36.4587 26.3319H46.8753C47.4503 26.3319 47.917 25.861 47.917 25.2807C47.917 24.7004 47.4503 24.2295 46.8753 24.2295H36.4587C35.8837 24.2295 35.417 24.7004 35.417 25.2807C35.417 25.861 35.8837 26.3319 36.4587 26.3319Z" fill="#86BC42"/>
<path id="Vector_7" d="M36.4583 32.6391H48.9583C49.5333 32.6391 50 32.1681 50 31.5878C50 31.0076 49.5333 30.5366 48.9583 30.5366H36.4583C35.8833 30.5366 35.4167 31.0076 35.4167 31.5878C35.4167 32.1681 35.8833 32.6391 36.4583 32.6391Z" fill="#86BC42"/>
<path id="Vector_8" d="M20.8337 38.9466H28.1253C28.7003 38.9466 29.167 38.4757 29.167 37.8954C29.167 37.3151 28.7003 36.8442 28.1253 36.8442H21.6649L16.9316 15.8197H40.6253C41.2003 15.8197 41.667 15.3488 41.667 14.7685C41.667 14.1882 41.2003 13.7173 40.6253 13.7173H15.6253C15.3087 13.7173 15.0087 13.8624 14.8107 14.1125C14.6128 14.3606 14.5378 14.6886 14.6087 14.9998L19.817 38.1267C19.9253 38.6082 20.3482 38.9466 20.8337 38.9466Z" fill="#86BC42"/>
</g>
</g>
<defs>
<clipPath id="clip0_602_3676">
<rect width="50" height="50.4587" fill="white" transform="matrix(-1 0 0 1 50 0)"/>
</clipPath>
</defs>
</svg>
