<svg width="14" height="14" viewBox="0 0 14 14" fill="none" xmlns="http://www.w3.org/2000/svg">
<g id="Instagram - Negative" clip-path="url(#clip0_602_3808)">
<path id="Vector" d="M7 1.26055C8.87031 1.26055 9.0918 1.26875 9.82734 1.30156C10.5109 1.33164 10.8801 1.44648 11.1262 1.54219C11.4516 1.66797 11.6867 1.82109 11.9301 2.06445C12.1762 2.31055 12.3266 2.54297 12.4523 2.86836C12.548 3.11445 12.6629 3.48633 12.693 4.16719C12.7258 4.90547 12.734 5.12695 12.734 6.99453C12.734 8.86484 12.7258 9.08633 12.693 9.82188C12.6629 10.5055 12.548 10.8746 12.4523 11.1207C12.3266 11.4461 12.1734 11.6812 11.9301 11.9246C11.684 12.1707 11.4516 12.3211 11.1262 12.4469C10.8801 12.5426 10.5082 12.6574 9.82734 12.6875C9.08906 12.7203 8.86758 12.7285 7 12.7285C5.12969 12.7285 4.9082 12.7203 4.17266 12.6875C3.48906 12.6574 3.11992 12.5426 2.87383 12.4469C2.54844 12.3211 2.31328 12.168 2.06992 11.9246C1.82383 11.6785 1.67344 11.4461 1.54766 11.1207C1.45195 10.8746 1.33711 10.5027 1.30703 9.82188C1.27422 9.08359 1.26602 8.86211 1.26602 6.99453C1.26602 5.12422 1.27422 4.90273 1.30703 4.16719C1.33711 3.48359 1.45195 3.11445 1.54766 2.86836C1.67344 2.54297 1.82656 2.30781 2.06992 2.06445C2.31602 1.81836 2.54844 1.66797 2.87383 1.54219C3.11992 1.44648 3.4918 1.33164 4.17266 1.30156C4.9082 1.26875 5.12969 1.26055 7 1.26055ZM7 0C5.09961 0 4.86172 0.00820312 4.11523 0.0410156C3.37148 0.0738281 2.86016 0.194141 2.41719 0.366406C1.95508 0.546875 1.56406 0.784766 1.17578 1.17578C0.784766 1.56406 0.546875 1.95508 0.366406 2.41445C0.194141 2.86016 0.0738281 3.36875 0.0410156 4.1125C0.00820313 4.86172 0 5.09961 0 7C0 8.90039 0.00820313 9.13828 0.0410156 9.88477C0.0738281 10.6285 0.194141 11.1398 0.366406 11.5828C0.546875 12.0449 0.784766 12.4359 1.17578 12.8242C1.56406 13.2125 1.95508 13.4531 2.41445 13.6309C2.86016 13.8031 3.36875 13.9234 4.1125 13.9562C4.85898 13.9891 5.09687 13.9973 6.99727 13.9973C8.89766 13.9973 9.13555 13.9891 9.88203 13.9562C10.6258 13.9234 11.1371 13.8031 11.5801 13.6309C12.0395 13.4531 12.4305 13.2125 12.8187 12.8242C13.207 12.4359 13.4477 12.0449 13.6254 11.5855C13.7977 11.1398 13.918 10.6313 13.9508 9.8875C13.9836 9.14102 13.9918 8.90312 13.9918 7.00273C13.9918 5.10234 13.9836 4.86445 13.9508 4.11797C13.918 3.37422 13.7977 2.86289 13.6254 2.41992C13.4531 1.95508 13.2152 1.56406 12.8242 1.17578C12.4359 0.7875 12.0449 0.546875 11.5855 0.369141C11.1398 0.196875 10.6313 0.0765625 9.8875 0.04375C9.13828 0.00820313 8.90039 0 7 0Z" fill="#878787"/>
<path id="Vector_2" d="M7 3.4043C5.01484 3.4043 3.4043 5.01484 3.4043 7C3.4043 8.98516 5.01484 10.5957 7 10.5957C8.98516 10.5957 10.5957 8.98516 10.5957 7C10.5957 5.01484 8.98516 3.4043 7 3.4043ZM7 9.33242C5.71211 9.33242 4.66758 8.28789 4.66758 7C4.66758 5.71211 5.71211 4.66758 7 4.66758C8.28789 4.66758 9.33242 5.71211 9.33242 7C9.33242 8.28789 8.28789 9.33242 7 9.33242Z" fill="#878787"/>
<path id="Vector_3" d="M11.5773 3.26206C11.5773 3.72691 11.2 4.10152 10.7379 4.10152C10.273 4.10152 9.89844 3.72417 9.89844 3.26206C9.89844 2.79722 10.2758 2.42261 10.7379 2.42261C11.2 2.42261 11.5773 2.79995 11.5773 3.26206Z" fill="#878787"/>
</g>
<defs>
<clipPath id="clip0_602_3808">
<rect width="14" height="14" fill="white"/>
</clipPath>
</defs>
</svg>
