<svg width="56" height="56" viewBox="0 0 56 56" fill="none" xmlns="http://www.w3.org/2000/svg">
<g id="Frame 267">
<rect width="56" height="56" rx="8" fill="#ACC294"/>
<path id="Vector" d="M43.67 12.3665C43.9185 12.1627 44.0973 11.8834 44.3337 11.6667C44.2026 12.6121 43.9632 13.5382 43.7511 14.4668C42.9882 17.592 42.0185 20.6618 40.811 23.6264C39.7511 26.2187 38.5019 28.7299 36.9951 31.0638C35.3875 33.5317 33.4754 35.8133 31.1656 37.5661C29.1922 39.079 26.9142 40.1608 24.5142 40.6279C23.5256 40.8205 22.5203 40.9176 21.515 40.9208C20.7513 40.9176 20.0226 40.6448 19.3188 40.3599C18.7574 41.6624 18.293 43.0131 17.7665 44.3333C17.4696 44.3285 17.2006 44.172 16.9218 44.0829C16.1681 43.7844 15.3953 43.5404 14.6506 43.217C15.5764 40.7868 16.4627 38.3366 17.5355 35.9731C18.7483 33.2957 20.2059 30.7203 22.0634 28.4868C23.6922 26.5221 25.618 24.8335 27.7513 23.5181C30.3474 21.9106 33.2118 20.8255 36.1398 20.1377C34.7754 20.1201 33.4232 20.3753 32.0868 20.6433C29.302 21.2324 26.5967 22.2749 24.1324 23.7757C22.0763 25.0406 20.1983 26.6417 18.6415 28.5486C17.5877 29.8286 16.687 31.2468 15.9325 32.7443C15.3787 33.8214 14.9469 34.961 14.531 36.1031C14.3999 36.0027 14.281 35.8856 14.1794 35.7532C13.2749 34.6143 12.5052 33.335 12.0416 31.9241C11.6711 30.7861 11.5514 29.5453 11.7916 28.3632C12.2158 26.104 13.2832 24.0157 14.6749 22.2613C16.2226 20.3207 18.2385 18.8111 20.4748 17.8962C22.3907 17.0928 24.4513 16.8312 26.4687 16.4604C28.377 16.1538 30.2823 15.8159 32.1967 15.5535C33.8179 15.3111 35.4383 15.0583 37.0496 14.7477C38.7337 14.4106 40.4223 14.027 42.0193 13.3488C42.6011 13.0888 43.1738 12.7854 43.67 12.3665Z" fill="white"/>
</g>
</svg>
