<svg width="16" height="16" viewBox="0 0 16 16" fill="none" xmlns="http://www.w3.org/2000/svg">
<g id="Iconsax">
<g id="Group 19">
<g id="Group 25">
<path id="Vector" d="M3.70118 10.3562C3.00588 10.0983 2.38909 9.59362 1.99658 8.87589C1.09942 7.23858 1.64893 5.10784 3.24138 4.12097L5.86557 2.49487C7.4468 1.508 9.48783 2.04629 10.385 3.67239C11.2821 5.3097 10.7326 7.44044 9.14018 8.42732L8.79254 8.67403" stroke="#878787" stroke-width="1.5" stroke-linecap="round" stroke-linejoin="round"/>
<path id="Vector_2" d="M12.865 4.68121C13.5603 4.93915 14.1771 5.4438 14.5696 6.16152C15.4667 7.79883 14.9172 9.92958 13.3248 10.9164L10.7006 12.5425C9.11934 13.5294 7.07831 12.9911 6.18115 11.365C5.28399 9.72772 5.8335 7.59697 7.42596 6.6101L7.7736 6.36338" stroke="#878787" stroke-width="1.5" stroke-linecap="round" stroke-linejoin="round"/>
</g>
</g>
</g>
</svg>
