<svg width="40" height="41" viewBox="0 0 40 41" fill="none" xmlns="http://www.w3.org/2000/svg">
<g id="returning" clip-path="url(#clip0_602_3690)">
<g id="Group 17">
<path id="Vector" d="M12.5 34.292H37.79C39.0083 34.292 40 33.3004 40 32.082V11.792C40 11.332 39.6267 10.9587 39.1667 10.9587H7.5C7.04 10.9587 6.66667 11.332 6.66667 11.792V18.4587C6.66667 18.9187 7.04 19.292 7.5 19.292C7.96001 19.292 8.33334 18.9187 8.33334 18.4587V12.6254H38.3333V32.082C38.3333 32.382 38.09 32.6254 37.79 32.6254H12.5C12.04 32.6254 11.6667 32.9987 11.6667 33.4587C11.6667 33.9187 12.04 34.292 12.5 34.292Z" fill="#86BC42"/>
<path id="Vector_2" d="M7.50001 12.6254C7.79334 12.6254 8.07834 12.4704 8.23001 12.1937L13.2633 3.05704C13.4083 2.79038 13.6883 2.62538 13.9933 2.62538H32.6733C32.9783 2.62538 33.2583 2.79038 33.4033 3.05704L38.4367 12.1937C38.6583 12.5987 39.1683 12.7404 39.5683 12.522C39.9717 12.3004 40.1183 11.792 39.8967 11.3904L34.8633 2.25371C34.425 1.45371 33.585 0.95871 32.6733 0.95871H13.9917C13.08 0.95871 12.24 1.45371 11.8017 2.25204L6.77001 11.3887C6.54668 11.792 6.69334 12.2987 7.09668 12.5204C7.22501 12.592 7.36334 12.6254 7.50001 12.6254Z" fill="#86BC42"/>
<path id="Vector_3" d="M23.3327 12.6254C23.7927 12.6254 24.166 12.252 24.166 11.792V1.79204C24.166 1.33204 23.7927 0.95871 23.3327 0.95871C22.8727 0.95871 22.4993 1.33204 22.4993 1.79204V11.792C22.4993 12.252 22.8727 12.6254 23.3327 12.6254Z" fill="#86BC42"/>
<path id="Vector_4" d="M0.833334 40.9587C1.29333 40.9587 1.66667 40.5854 1.66667 40.1254V36.792C1.66667 31.737 5.78 27.6254 10.8333 27.6254H14.1667C14.6267 27.6254 15 27.252 15 26.792C15 26.332 14.6267 25.9587 14.1667 25.9587H10.8333C4.86 25.9587 0 30.8187 0 36.792V40.1254C0 40.5854 0.373334 40.9587 0.833334 40.9587Z" fill="#86BC42"/>
<path id="Vector_5" d="M8.33333 32.6252C8.525 32.6252 8.71834 32.5585 8.875 32.4235L14.7083 27.4235C14.895 27.2669 15 27.0352 15 26.7919C15 26.5485 14.895 26.3169 14.7083 26.1602L8.875 21.1602C8.52667 20.8619 8.00334 20.9002 7.7 21.2502C7.4 21.5985 7.44167 22.1252 7.79167 22.4252L12.885 26.7919L7.79 31.1602C7.44 31.4602 7.4 31.9852 7.69833 32.3352C7.86667 32.5269 8.09833 32.6252 8.33333 32.6252Z" fill="#86BC42"/>
</g>
</g>
<defs>
<clipPath id="clip0_602_3690">
<rect width="40" height="40" fill="white" transform="matrix(-1 0 0 1 40 0.95871)"/>
</clipPath>
</defs>
</svg>
