<svg width="56" height="56" viewBox="0 0 56 56" fill="none" xmlns="http://www.w3.org/2000/svg">
<g id="save">
<g id="Group">
<path id="Vector" d="M37.6356 20.7282C36.535 19.6138 35.0175 19 33.3625 19C30.469 19 28.973 20.4888 28.2275 21.7377C28.2182 21.7532 28.2091 21.7688 28.2 21.7843C28.1909 21.7688 28.1818 21.7532 28.1725 21.7377C27.427 20.4888 25.931 19 23.0375 19C21.3825 19 19.865 19.6138 18.7644 20.7283C17.6101 21.8972 17 23.4974 17 25.3557C17 29.3019 20.5079 31.9183 23.6028 34.2267C25.145 35.3769 26.6016 36.4633 27.5184 37.6023C27.6845 37.8087 27.9351 37.9287 28.2 37.9287C28.4649 37.9287 28.7155 37.8087 28.8817 37.6024C29.3532 37.0165 30.0087 36.3936 30.9446 35.6419C31.3213 35.3393 31.3814 34.7885 31.0788 34.4117C30.7762 34.035 30.2254 33.9748 29.8487 34.2775C29.1884 34.8078 28.6483 35.2874 28.2004 35.7432C27.2113 34.7349 25.9594 33.8012 24.6491 32.8239C21.7489 30.6608 18.75 28.424 18.75 25.3557C18.75 22.6439 20.5131 20.75 23.0375 20.75C24.679 20.75 25.891 21.3675 26.6399 22.5854C27.2344 23.5521 27.3269 24.5584 27.3275 24.5647C27.3626 25.0205 27.7426 25.3744 28.1998 25.3744C28.657 25.3744 29.037 25.0243 29.0721 24.5685C29.073 24.5584 29.1655 23.5521 29.76 22.5854C30.509 21.3675 31.721 20.75 33.3625 20.75C35.8869 20.75 37.65 22.6439 37.65 25.3557C37.65 27.8949 35.5827 29.8636 33.3487 31.6127C32.9683 31.9106 32.9013 32.4606 33.1992 32.8411C33.497 33.2216 34.0471 33.2885 34.4276 32.9906C35.4903 32.1585 36.8372 31.0341 37.828 29.7137C38.8858 28.3039 39.4 26.8784 39.4 25.3557C39.4 23.4974 38.7899 21.8972 37.6356 20.7282Z" fill="#6B6B6B"/>
</g>
</g>
</svg>
