<svg width="42" height="34" viewBox="0 0 42 34" fill="none" xmlns="http://www.w3.org/2000/svg">
<g id="Frame 316">
<path id="Vector 1" d="M4.94366 1.74756H37.0563M4.38028 18.0856H3.41691C2.1623 18.0856 1.21748 16.9438 1.45223 15.7114L2.94385 7.88038C3.12353 6.93707 3.94826 6.2546 4.90853 6.2546H37.0915C38.0517 6.2546 38.8765 6.93707 39.0562 7.88038L40.5783 15.8719C40.7972 17.021 39.9163 18.0856 38.7465 18.0856V18.0856M4.38028 18.0856V30.1701C4.38028 31.2747 5.27571 32.1701 6.38028 32.1701H21.5352C22.6398 32.1701 23.5352 31.2747 23.5352 30.1701V18.0856M4.38028 18.0856H23.5352M23.5352 18.0856H38.7465M38.7465 32.1701V18.0856" stroke="#86BC42" stroke-width="1.8" stroke-linecap="round"/>
</g>
</svg>
