<svg width="18" height="18" viewBox="0 0 18 18" fill="none" xmlns="http://www.w3.org/2000/svg">
<g id="shopping-cart" clip-path="url(#clip0_602_3777)">
<g id="Group">
<g id="Group_2">
<path id="Vector" d="M0.157536 4.09163C0.291058 3.92738 0.491449 3.83203 0.703125 3.83203H13.439L13.4911 3.35278L13.493 3.33738C13.7426 1.4348 15.3779 0 17.2969 0C17.6852 0 18 0.314789 18 0.703125C18 1.09146 17.6852 1.40625 17.2969 1.40625C16.0838 1.40625 15.0496 2.31149 14.8882 3.51309L14.0525 11.1913C14.7834 11.523 15.293 12.2598 15.293 13.1133C15.293 13.1192 15.2929 13.125 15.2928 13.1309C15.2929 13.1367 15.293 13.1426 15.293 13.1484C15.293 14.3115 14.3467 15.2578 13.1836 15.2578H12.8975C12.969 15.4675 13.0078 15.6922 13.0078 15.9258C13.0078 17.0695 12.0773 18 10.9336 18C9.78986 18 8.85938 17.0695 8.85938 15.9258C8.85938 15.6922 8.89819 15.4675 8.9697 15.2578H5.93652C6.00803 15.4675 6.04684 15.6922 6.04684 15.9258C6.04684 17.0695 5.11636 18 3.97262 18C2.82888 18 1.8984 17.0695 1.8984 15.9258C1.8984 14.7821 2.82888 13.8516 3.97262 13.8516H13.1836C13.5713 13.8516 13.8867 13.5361 13.8867 13.1484C13.8867 13.1426 13.8868 13.1367 13.8869 13.1309C13.8868 13.125 13.8867 13.1192 13.8867 13.1133C13.8867 12.7256 13.5713 12.4102 13.1836 12.4102H4.20711C2.95896 12.4102 1.81354 11.6379 1.28893 10.4427C1.13288 10.0872 1.29459 9.6724 1.65016 9.5163C2.00573 9.36025 2.42051 9.52197 2.5766 9.87753C2.8723 10.5513 3.52754 11.0039 4.20711 11.0039H12.6583L13.2859 5.23828H1.56804L1.91208 6.88767C1.99136 7.26782 1.74748 7.64026 1.36733 7.71954C1.31892 7.72966 1.27065 7.73452 1.22305 7.73452C0.897081 7.73452 0.604652 7.50656 0.535465 7.17483L0.0148354 4.67873C-0.0284061 4.47152 0.0240116 4.25588 0.157536 4.09163ZM3.97266 15.2578C3.60432 15.2578 3.30469 15.5574 3.30469 15.9258C3.30469 16.2941 3.60432 16.5938 3.97266 16.5938C4.34099 16.5938 4.64062 16.2941 4.64062 15.9258C4.64062 15.5574 4.34099 15.2578 3.97266 15.2578ZM10.9336 15.2578C10.5653 15.2578 10.2656 15.5575 10.2656 15.9258C10.2656 16.2941 10.5653 16.5938 10.9336 16.5938C11.3019 16.5938 11.6016 16.2941 11.6016 15.9258C11.6016 15.5574 11.3019 15.2578 10.9336 15.2578Z" fill="white"/>
</g>
</g>
</g>
<defs>
<clipPath id="clip0_602_3777">
<rect width="18" height="18" fill="white" transform="matrix(-1 0 0 1 18 0)"/>
</clipPath>
</defs>
</svg>
