<svg width="11" height="11" viewBox="0 0 11 11" fill="none" xmlns="http://www.w3.org/2000/svg">
<path id="Vector" d="M10.9712 3.98298C10.8988 3.76024 10.7012 3.60255 10.4684 3.58148L7.29306 3.2932L6.03813 0.355169C5.94548 0.139315 5.73466 0 5.50001 0C5.26535 0 5.05445 0.139315 4.96239 0.355169L3.70746 3.2932L0.531585 3.58148C0.298778 3.60297 0.101639 3.76066 0.0287928 3.98298C-0.0436341 4.20571 0.0232538 4.45002 0.199328 4.60444L2.59966 6.70919L1.89192 9.82632C1.84014 10.0555 1.9291 10.2925 2.11927 10.43C2.22149 10.5043 2.34159 10.5414 2.4621 10.5414C2.56567 10.5414 2.66931 10.5138 2.76188 10.4584L5.50001 8.82123L8.23763 10.4584C8.43846 10.5784 8.69099 10.5675 8.88074 10.43C9.07092 10.2925 9.15988 10.0555 9.10809 9.82632L8.40036 6.70919L10.8007 4.60444C10.9767 4.45002 11.0436 4.20622 10.9712 3.98298V3.98298Z" fill="#DD794F"/>
</svg>
