<svg width="14" height="14" viewBox="0 0 14 14" fill="none" xmlns="http://www.w3.org/2000/svg">
<g id="Twitter - Original">
<path id="Vector" d="M4.40272 12.6879C9.68576 12.6879 12.5754 8.31096 12.5754 4.51528C12.5754 4.39096 12.5754 4.2672 12.567 4.144C13.1291 3.73739 13.6144 3.23394 14 2.6572C13.4758 2.8896 12.9197 3.04194 12.3502 3.10912C12.9499 2.75019 13.3987 2.18558 13.613 1.5204C13.0492 1.85501 12.4324 2.0908 11.7891 2.2176C11.356 1.75711 10.7833 1.45218 10.1594 1.35C9.53561 1.24783 8.89549 1.3541 8.33815 1.65238C7.7808 1.95066 7.3373 2.42432 7.07627 3.00006C6.81524 3.57579 6.75123 4.22151 6.89416 4.83728C5.75219 4.78 4.63502 4.48322 3.61518 3.96621C2.59534 3.44919 1.69561 2.72351 0.9744 1.83624C0.607091 2.46857 0.494592 3.21713 0.659808 3.92949C0.825024 4.64185 1.25553 5.26447 1.86368 5.67056C1.40655 5.65717 0.959378 5.53385 0.56 5.31104V5.34744C0.560181 6.01061 0.789746 6.65329 1.20976 7.16649C1.62977 7.67969 2.21437 8.03181 2.8644 8.16312C2.44153 8.27847 1.99784 8.29533 1.56744 8.2124C1.75106 8.78309 2.10842 9.28214 2.58956 9.63978C3.0707 9.99743 3.65157 10.1958 4.25096 10.2071C3.65542 10.6752 2.97343 11.0213 2.24401 11.2256C1.51459 11.4299 0.752042 11.4884 0 11.3977C1.31357 12.2406 2.84196 12.6877 4.40272 12.6857" fill="#878787"/>
</g>
</svg>
