<svg width="40" height="41" viewBox="0 0 40 41" fill="none" xmlns="http://www.w3.org/2000/svg">
<g id="warranty">
<g id="Group 18">
<g id="Group">
<g id="Group_2">
<path id="Vector" d="M31.7995 31.054C31.4449 30.8081 30.9581 30.8965 30.7124 31.2511C30.4743 31.5949 30.2045 31.9291 29.91 32.2446C29.7128 32.4563 29.4414 32.7114 29.146 32.9627C28.8174 33.2424 28.7778 33.7354 29.0574 34.0641C29.2119 34.2457 29.4317 34.3389 29.6528 34.3389C29.8317 34.3389 30.0117 34.2778 30.1588 34.1526C30.5033 33.8593 30.8126 33.5681 31.0528 33.3102C31.3982 32.94 31.7159 32.5467 31.9968 32.1411C32.2425 31.7864 32.1542 31.2997 31.7995 31.054Z" fill="#86BC42"/>
</g>
</g>
<g id="Group_3">
<g id="Group_4">
<path id="Vector_2" d="M28.3967 34.5568C28.2134 34.1662 27.7484 33.9981 27.3576 34.1813L27.3332 34.1923C26.9384 34.3664 26.7597 34.8277 26.9339 35.2224C27.0629 35.5146 27.3489 35.6884 27.649 35.6884C27.7544 35.6884 27.8615 35.667 27.964 35.6217C27.9831 35.6134 28.002 35.6048 28.021 35.596C28.4116 35.4127 28.5798 34.9476 28.3967 34.5568Z" fill="#86BC42"/>
</g>
</g>
<g id="Group_5">
<g id="Group_6">
<path id="Vector_3" d="M37.666 2.98996H2.33398C1.04695 2.98996 0 4.03707 0 5.32394V27.2186C0 28.5054 1.04695 29.5524 2.33398 29.5524H18.786C19.4834 32.5032 21.0605 34.593 22.4389 35.9319C24.4507 37.8865 26.757 38.9273 27.6483 38.9273C28.5396 38.9273 30.8458 37.8865 32.8577 35.932C34.2361 34.593 35.8133 32.5032 36.5106 29.5525H37.666C38.953 29.5525 40 28.5055 40 27.2187V5.32394C40 4.03707 38.953 2.98996 37.666 2.98996ZM35.3124 26.3507C35.3125 30.4669 33.4124 33.1973 31.8184 34.763C29.9275 36.6203 27.9879 37.3427 27.6483 37.3647C27.3086 37.3427 25.3689 36.6204 23.4781 34.763C21.8842 33.1973 19.9841 30.4669 19.9841 26.3507V22.5034C22.6739 21.7255 25.1908 20.6609 27.6485 19.2618C30.0509 20.6253 32.6806 21.7373 35.3124 22.5029V26.3507ZM38.4375 27.2186C38.4375 27.6439 38.0913 27.9899 37.666 27.9899H36.7824C36.8422 27.4664 36.875 26.9205 36.875 26.3507V21.911C36.875 21.5584 36.6388 21.2495 36.2985 21.1571C33.4616 20.3867 30.6068 19.1863 28.0429 17.6856C27.7992 17.5429 27.4974 17.5431 27.2535 17.6857C24.617 19.229 21.9166 20.3644 18.9981 21.1571C18.6579 21.2496 18.4216 21.5584 18.4216 21.911V26.3507C18.4216 26.9205 18.4543 27.4664 18.5143 27.9899H2.33398C1.90859 27.9899 1.5625 27.6438 1.5625 27.2186V13.9273H38.4375V27.2186ZM38.4375 13.9273H1.5625V9.24002H38.4375V13.9273ZM38.4375 9.24002H1.5625V5.32394C1.5625 4.89855 1.90859 4.55246 2.33398 4.55246H37.666C38.0913 4.55246 38.4375 4.89855 38.4375 5.32394V9.24002Z" fill="#86BC42"/>
</g>
</g>
<g id="Group_7">
<g id="Group_8">
<path id="Vector_4" d="M15.7674 17.9587H15.7326C15.328 17.9587 15 18.2945 15 18.7087C15 19.1229 15.328 19.4587 15.7326 19.4587H15.7674C16.1719 19.4587 16.5 19.1228 16.5 18.7087C16.5 18.2945 16.1719 17.9587 15.7674 17.9587Z" fill="#86BC42"/>
</g>
</g>
<rect id="Rectangle 93" x="4" y="17.9587" width="10" height="1.5" rx="0.75" fill="#86BC42"/>
<rect id="Rectangle 94" x="4" y="12.9587" width="32" height="1.5" rx="0.75" fill="#86BC42"/>
<rect id="Rectangle 95" x="4" y="7.95871" width="32" height="1.5" rx="0.75" fill="#86BC42"/>
<g id="Group_9">
<g id="Group_10">
<path id="Vector_5" d="M31.9366 24.5544C31.6316 24.2495 31.137 24.2493 30.8318 24.5543L26.6539 28.7319L24.4646 26.5425C24.1595 26.2376 23.6648 26.2375 23.3597 26.5425C23.0546 26.8476 23.0545 27.3423 23.3597 27.6474L26.1015 30.3892C26.2541 30.5418 26.454 30.6181 26.6539 30.6181C26.8538 30.6181 27.0538 30.5418 27.2063 30.3892L31.9365 25.6593C32.2416 25.3543 32.2416 24.8596 31.9366 24.5544Z" fill="#86BC42"/>
</g>
</g>
</g>
</g>
</svg>
