<svg width="14" height="14" viewBox="0 0 14 14" fill="none" xmlns="http://www.w3.org/2000/svg">
<g id="Whatsapp">
<g clip-path="url(#clip0_602_3807)">
<rect width="14" height="14" rx="7" fill="white"/>
<path id="Subtract" d="M0 0H100V100H0V0Z" fill="#878787"/>
<g id="Vector">
<path d="M1 13L2.71806 9.33462C2.13896 8.29632 1.95498 7.08471 2.19987 5.92212C2.44475 4.75953 3.10209 3.72395 4.05124 3.00541C5.0004 2.28687 6.17771 1.93356 7.36714 2.01032C8.55657 2.08708 9.67834 2.58877 10.5266 3.42331C11.3748 4.25785 11.8927 5.36927 11.9851 6.55362C12.0775 7.73798 11.7383 8.91582 11.0296 9.87102C10.321 10.8262 9.29056 11.4947 8.12734 11.7538C6.96411 12.0129 5.74615 11.8452 4.69695 11.2815L1 13ZM4.82699 10.2841L4.99379 10.3827C5.75374 10.8317 6.64136 11.0175 7.51831 10.9111C8.39527 10.8048 9.2123 10.4123 9.84208 9.79488C10.4719 9.17744 10.879 8.3697 11.0001 7.49755C11.1212 6.6254 10.9494 5.73782 10.5115 4.97314C10.0736 4.20845 9.39424 3.60961 8.57921 3.26993C7.76418 2.93026 6.8593 2.86883 6.00558 3.09522C5.15186 3.32161 4.39727 3.82311 3.85938 4.52156C3.3215 5.22 3.03054 6.07616 3.03185 6.95662C3.03114 7.68667 3.23372 8.40259 3.61704 9.02469L3.72164 9.19656L3 11L4.82699 10.2841Z" fill="white"/>
<path fill-rule="evenodd" clip-rule="evenodd" d="M8.87517 7.64103C8.77739 7.56243 8.66291 7.5071 8.54043 7.47927C8.41796 7.45144 8.29072 7.45184 8.16842 7.48043C7.98467 7.5565 7.86594 7.84389 7.7472 7.98758C7.72216 8.02203 7.68537 8.04619 7.64374 8.05552C7.6021 8.06486 7.55847 8.05874 7.52104 8.0383C6.84831 7.77569 6.28442 7.29412 5.92096 6.6718C5.88996 6.63296 5.87529 6.58365 5.88004 6.53425C5.88478 6.48485 5.90857 6.43922 5.94641 6.40695C6.07883 6.27629 6.17606 6.11446 6.2291 5.93642C6.24088 5.74004 6.19574 5.54443 6.09906 5.37292C6.02432 5.13246 5.88208 4.91834 5.68915 4.75588C5.58964 4.71127 5.4793 4.69632 5.37146 4.71281C5.26361 4.72931 5.16285 4.77656 5.08135 4.84886C4.93985 4.97053 4.82753 5.12229 4.75268 5.29295C4.67782 5.46362 4.64233 5.64884 4.64881 5.83499C4.64925 5.93952 4.66254 6.04361 4.68839 6.14492C4.75404 6.38833 4.85499 6.62088 4.98805 6.83521C5.08406 6.9994 5.18881 7.15835 5.30185 7.31138C5.66923 7.81402 6.13104 8.24079 6.66164 8.56799C6.92789 8.73427 7.21247 8.86946 7.50973 8.9709C7.81853 9.11041 8.15947 9.16396 8.49636 9.12586C8.6883 9.09691 8.87016 9.02138 9.02593 8.90592C9.18171 8.79046 9.30662 8.63862 9.38968 8.46374C9.43849 8.35811 9.4533 8.24 9.43209 8.12564C9.3812 7.89179 9.06741 7.75373 8.87517 7.64103Z" fill="white"/>
</g>
</g>
</g>
<defs>
<clipPath id="clip0_602_3807">
<rect width="14" height="14" rx="7" fill="white"/>
</clipPath>
</defs>
</svg>
